# https://github.com/mikedh/trimesh
v 0.00000000 0.65600000 -0.00735100
v 0.00000000 0.65394200 -0.05485100
v 0.00000000 0.61543200 -0.00667300
v 0.00000000 0.55625000 -0.05625000
v 0.00000000 0.55625000 -0.10000000
v 0.00000000 0.55625000 -0.10000000
v 0.00000000 0.55625000 0.10000000
v 0.00000000 0.55625000 0.10000000
v 0.00000000 0.70000000 -0.01250000
v 0.00000000 0.70000000 -0.01250000
v 0.00000000 0.70000000 -0.05625000
v 0.00000000 0.70000000 -0.05625000
v 0.00000000 0.70000000 -0.10000000
v 0.00000000 0.70000000 -0.10000000
v 0.00000000 0.70000000 -0.10000000
v 0.00000000 0.70000000 0.10000000
v 0.00000000 0.70000000 0.10000000
v 0.00000000 0.70000000 0.10000000
v 0.00000000 0.70000000 0.04375000
v 0.00000000 0.70000000 0.04375000
v 0.00000000 0.50000000 -0.01250000
v 0.00000000 0.50000000 -0.01250000
v 0.00000000 0.50000000 -0.05625000
v 0.00000000 0.50000000 -0.05625000
v 0.00000000 0.50000000 -0.10000000
v 0.00000000 0.50000000 -0.10000000
v 0.00000000 0.50000000 -0.10000000
v 0.00000000 0.50000000 0.10000000
v 0.00000000 0.50000000 0.10000000
v 0.00000000 0.50000000 0.10000000
v 0.00000000 0.50000000 0.04375000
v 0.00000000 0.50000000 0.04375000
v 0.00000000 0.65161100 0.04872500
v 0.00000000 0.60879500 0.04521900
v 0.00000000 0.53717400 0.05298800
v 0.00000000 0.67532700 0.01907700
v 0.00000000 0.65625000 -0.10000000
v 0.00000000 0.65625000 -0.10000000
v 0.00000000 0.65625000 0.10000000
v 0.00000000 0.65625000 0.10000000
v 0.00000000 0.60775600 -0.05023300
v 0.00000000 0.55531200 -0.00165600
v 0.00000000 0.61250000 -0.10000000
v 0.00000000 0.61250000 -0.10000000
v 0.00000000 0.61250000 0.10000000
v 0.00000000 0.61250000 0.10000000
v 0.00000000 0.52812500 -0.03437500
v 0.00000000 0.57167600 0.05729900
v 0.36838400 0.49980600 -0.09999700
v 0.36838400 0.49980600 -0.09999700
v 0.32320000 0.49981200 -0.03384800
v 0.27417600 0.49982300 0.06233400
v 0.90598400 0.49980400 -0.02910700
v 0.10188800 0.53077600 0.09999800
v 0.20044800 0.49985800 -0.03228000
v 1.00000000 0.65605400 -0.10000000
v 1.00000000 0.65605400 -0.10000000
v 1.00000000 0.54262300 0.04813000
v 1.00000000 0.54980400 0.10000000
v 1.00000000 0.54980400 0.10000000
v 1.00000000 0.61230400 -0.10000000
v 1.00000000 0.61230400 -0.10000000
v 1.00000000 0.62691400 0.02158800
v 1.00000000 0.66004300 0.05017000
v 1.00000000 0.62447700 0.07532700
v 1.00000000 0.66414700 0.00703800
v 1.00000000 0.58688900 -0.06280900
v 1.00000000 0.52811400 -0.07693200
v 1.00000000 0.58364300 0.06214900
v 1.00000000 0.55605400 -0.10000000
v 1.00000000 0.55605400 -0.10000000
v 1.00000000 0.59088800 0.03099300
v 1.00000000 0.64980400 0.10000000
v 1.00000000 0.64980400 0.10000000
v 1.00000000 0.59710900 0.10000000
v 1.00000000 0.59710900 0.10000000
v 1.00000000 0.66102200 -0.05929300
v 1.00000000 0.62972600 -0.03045900
v 1.00000000 0.54915000 -0.05065400
v 1.00000000 0.55844800 0.00454800
v 1.00000000 0.66476500 -0.02147900
v 1.00000000 0.58681300 -0.01578800
v 1.00000000 0.49980400 -0.01250000
v 1.00000000 0.49980400 -0.01250000
v 1.00000000 0.49980400 -0.06188200
v 1.00000000 0.49980400 -0.06188200
v 1.00000000 0.49980400 -0.10000000
v 1.00000000 0.49980400 -0.10000000
v 1.00000000 0.49980400 -0.10000000
v 1.00000000 0.49980400 0.10000000
v 1.00000000 0.49980400 0.10000000
v 1.00000000 0.49980400 0.10000000
v 1.00000000 0.49980400 0.04375000
v 1.00000000 0.49980400 0.04375000
v 1.00000000 0.69980400 -0.01250000
v 1.00000000 0.69980400 -0.01250000
v 1.00000000 0.69980400 -0.05625000
v 1.00000000 0.69980400 -0.05625000
v 1.00000000 0.69980400 -0.10000000
v 1.00000000 0.69980400 -0.10000000
v 1.00000000 0.69980400 -0.10000000
v 1.00000000 0.69980400 0.10000000
v 1.00000000 0.69980400 0.10000000
v 1.00000000 0.69980400 0.10000000
v 1.00000000 0.69980400 0.04375000
v 1.00000000 0.69980400 0.04375000
v 0.70071300 0.49980400 -0.10000000
v 0.70071300 0.49980400 -0.10000000
v 0.70071300 0.49980400 0.02467300
v 0.70071300 0.69980400 -0.10000000
v 0.70071300 0.69980400 -0.10000000
v 0.70071300 0.69980400 0.10000000
v 0.70071300 0.69980400 0.10000000
v 0.90788100 0.69980400 0.02821500
v 0.03824900 0.66219600 -0.10000000
v 0.35031300 0.54422700 -0.09999800
v 0.63172100 0.69980300 0.02563700
v 0.07140100 0.50000000 0.06551000
v 0.39349000 0.69980500 0.10000300
v 0.39349000 0.69980500 0.10000300
v 0.94619400 0.69980400 0.10000000
v 0.94619400 0.69980400 0.10000000
v 0.38062600 0.49980600 0.05845900
v 0.05230600 0.62035100 -0.10000000
v 0.46715400 0.57046200 0.10000000
v 0.03009800 0.57326400 0.10000000
v 0.23131400 0.58716600 -0.09999900
v 0.55871500 0.66076400 -0.10000000
v 0.86115600 0.69980400 -0.03367000
v 0.29757200 0.49981700 0.02470900
v 0.60035600 0.49980300 0.10000000
v 0.60035600 0.49980300 0.10000000
v 0.21501200 0.61961400 0.10000000
v 0.66410000 0.62688400 -0.10000000
v 0.47606800 0.60153100 0.10000000
v 0.55018000 0.69980300 0.10000100
v 0.55018000 0.69980300 0.10000100
v 0.89238800 0.69980400 0.10000000
v 0.89238800 0.69980400 0.10000000
v 0.34525200 0.49980900 0.02155800
v 0.37149200 0.65531600 -0.10000100
v 0.84090900 0.49980400 0.01133100
v 0.09857300 0.70000000 -0.10000000
v 0.09857300 0.70000000 -0.10000000
v 0.09857300 0.50000000 -0.10000000
v 0.09857300 0.50000000 -0.10000000
v 0.49383700 0.49980300 -0.01924000
v 0.49383700 0.49980300 -0.09999900
v 0.49383700 0.49980300 -0.09999900
v 0.35162900 0.49980900 -0.05980300
v 0.91022100 0.69980400 -0.06233600
v 0.53112600 0.62889500 0.10000100
v 0.83858200 0.69980400 0.10000000
v 0.83858200 0.69980400 0.10000000
v 0.22911000 0.62392800 -0.10000000
v 0.35115800 0.69980900 -0.06042000
v 0.22469400 0.69984200 0.02467500
v 0.46934300 0.49980400 0.02214200
v 0.17417500 0.66380300 0.09999900
v 0.87542300 0.53762900 -0.10000000
v 0.77846300 0.69980400 -0.02414000
v 0.55638300 0.65294200 0.10000100
v 0.76615200 0.49980400 -0.01016200
v 0.35917600 0.65467400 0.10000200
v 0.27284000 0.53788800 0.09999700
v 0.78477600 0.69980400 0.10000000
v 0.78477600 0.69980400 0.10000000
v 0.07437600 0.61924000 0.10000000
v 0.72320800 0.60652800 -0.10000000
v 0.65658400 0.69980300 0.10000100
v 0.65658400 0.69980300 0.10000100
v 0.39390500 0.53900500 0.09999800
v 0.50622500 0.58244500 0.10000000
v 0.05752100 0.57987800 -0.10000000
v 0.44491300 0.69980300 0.10000200
v 0.44491300 0.69980300 0.10000200
v 0.04700200 0.50000000 0.10000000
v 0.04700200 0.50000000 0.10000000
v 0.24851500 0.66990200 -0.10000200
v 0.16499500 0.69988800 -0.03608900
v 0.22336300 0.54918900 -0.09999900
v 0.33687600 0.69981000 0.06755800
v 0.24913200 0.69983100 -0.10000200
v 0.24913200 0.69983100 -0.10000200
v 0.83838000 0.62513100 -0.10000000
v 0.58346800 0.69980300 -0.10000000
v 0.58346800 0.69980300 -0.10000000
v 0.75089200 0.49980400 0.05000000
v 0.75089200 0.49980400 0.10000000
v 0.75089200 0.49980400 0.10000000
v 0.42846000 0.53900400 0.09999900
v 0.65066800 0.49980300 0.02032500
v 0.22730800 0.69983800 0.10000500
v 0.22730800 0.69983800 0.10000500
v 0.80535600 0.54040900 -0.10000000
v 0.80535600 0.54040900 -0.10000000
v 0.40635700 0.69980500 0.01907800
v 0.43865400 0.69980400 0.04729500
v 0.87347000 0.64116900 0.10000000
v 0.82659900 0.69980400 0.00422300
v 0.87837500 0.69980400 0.00736100
v 0.08227900 0.70000000 0.10000000
v 0.08227900 0.70000000 0.10000000
v 0.65053500 0.49980300 -0.10000000
v 0.65053500 0.49980300 -0.10000000
v 0.65053500 0.49980300 0.10000000
v 0.65053500 0.49980300 0.10000000
v 0.96336700 0.66798200 0.10000000
v 0.14196800 0.57316200 0.10000100
v 0.79080000 0.49980400 0.06765300
v 0.74766400 0.61388500 0.10000000
v 0.44366400 0.66279300 0.10000100
v 0.93983300 0.49980400 -0.00687100
v 0.43743300 0.60638900 -0.10000000
v 0.19890500 0.49985600 -0.09999900
v 0.19890500 0.49985600 -0.09999900
v 0.95256900 0.69980400 0.06193200
v 0.95071300 0.49980400 -0.10000000
v 0.95071300 0.49980400 -0.10000000
v 0.06533700 0.70000000 0.06299100
v 0.36364100 0.69980800 0.01012300
v 0.68963400 0.69980400 -0.02902900
v 0.71657800 0.65281600 -0.10000000
v 0.55017800 0.54914900 0.10000000
v 0.26973000 0.49982400 -0.07826800
v 0.29929800 0.67514100 -0.10000300
v 0.13027400 0.69992700 0.01805600
v 0.68995400 0.49980400 -0.06397800
v 0.10147400 0.59175900 -0.09999800
v 0.50000200 0.69980300 -0.10000100
v 0.50000200 0.69980300 -0.10000100
v 0.50000200 0.69980300 0.10000100
v 0.50000200 0.69980300 0.10000100
v 0.75508300 0.69980400 0.03308800
v 0.11156300 0.64444900 0.09999700
v 0.18170700 0.54043200 -0.10000100
v 0.04839500 0.50000000 0.02467300
v 0.57729100 0.49980300 -0.05173700
v 0.56225100 0.60733300 0.10000000
v 0.61665100 0.49980300 -0.10000000
v 0.61665100 0.49980300 -0.10000000
v 0.47128400 0.69980300 -0.04436600
v 0.36386900 0.49980800 -0.02464900
v 0.09583700 0.50000000 0.10000000
v 0.09583700 0.50000000 0.10000000
v 0.57564500 0.49980300 0.07495100
v 0.27222100 0.66399500 0.10000400
v 0.73961300 0.57260600 0.10000000
v 0.49078100 0.49980300 -0.06732700
v 0.86592600 0.69980400 -0.10000000
v 0.86592600 0.69980400 -0.10000000
v 0.75520600 0.49980400 -0.10000000
v 0.75520600 0.49980400 -0.10000000
v 0.57434200 0.58233800 -0.10000000
v 0.29927000 0.49981400 0.09999500
v 0.29927000 0.49981400 0.09999500
v 0.14878300 0.69990400 0.09999300
v 0.14878300 0.69990400 0.09999300
v 0.10046300 0.55159600 -0.10000600
v 0.05284700 0.53282500 0.10000000
v 0.64011100 0.57406800 -0.10000000
v 0.11255900 0.64787600 -0.09999200
v 0.67620700 0.66340200 -0.10000000
v 0.14871900 0.49991100 0.10000500
v 0.14871900 0.49991100 0.10000500
v 0.15215200 0.49991300 -0.10000900
v 0.15215200 0.49991300 -0.10000900
v 0.39080800 0.49980600 -0.04967600
v 0.10376800 0.49996600 0.01098300
v 0.70095200 0.49980400 0.10000000
v 0.70095200 0.49980400 0.10000000
v 0.47240800 0.69980300 -0.07999400
v 0.03797600 0.63055500 0.10000000
v 0.38927200 0.69980600 -0.01656500
v 0.36838500 0.49980600 0.09999700
v 0.36838500 0.49980600 0.09999700
v 0.37958500 0.69980500 -0.10000200
v 0.37958500 0.69980500 -0.10000200
v 0.66336100 0.67428200 0.10000000
v 0.27430500 0.69982200 0.02266600
v 0.43750500 0.69980400 -0.10000100
v 0.43750500 0.69980400 -0.10000100
v 0.06598500 0.70000000 -0.10000000
v 0.06598500 0.70000000 -0.10000000
v 0.82624100 0.49980400 -0.03981200
v 0.87569000 0.62578500 -0.10000000
v 0.87569000 0.49980400 0.00000000
v 0.87569000 0.49980400 0.05065400
v 0.64516200 0.61724100 0.10000000
v 0.72580200 0.53681300 -0.10000000
v 0.37521000 0.69980600 0.05065600
v 0.82487400 0.69980400 -0.05248800
v 0.85345900 0.69980400 0.03664000
v 0.17979500 0.69987200 0.06853800
v 0.20801900 0.66278400 -0.10000000
v 0.33659500 0.58681800 -0.09999900
v 0.29928300 0.57383300 -0.09999900
v 0.24908400 0.49983200 0.09999700
v 0.24908400 0.49983200 0.09999700
v 0.14898800 0.49990400 0.02259100
v 0.49471600 0.69980300 0.05082900
v 0.14873200 0.49989900 -0.02597900
v 0.60035700 0.69980300 0.05065400
v 0.87632500 0.49980400 -0.05374100
v 0.52771700 0.49980300 0.01355700
v 0.34947700 0.69980800 0.10000400
v 0.34947700 0.69980800 0.10000400
v 0.24739700 0.49983100 -0.04798200
v 0.48336500 0.54328900 -0.09999900
v 0.60592500 0.49980300 0.05201400
v 0.04374900 0.70000000 0.02282300
v 0.19651700 0.69986100 -0.06422000
v 0.58781300 0.69980300 0.10000100
v 0.58781300 0.69980300 0.10000100
v 0.90900600 0.66863600 0.10000000
v 0.16449400 0.58100700 -0.10000200
v 0.93522300 0.54628700 -0.10000000
v 0.44837500 0.62301100 0.10000100
v 0.89407100 0.53692000 0.10000000
v 0.62936700 0.69980300 -0.05529200
v 0.28075900 0.65126300 -0.10000100
v 0.94576000 0.54671500 0.10000000
v 0.03299200 0.70000000 -0.05625000
v 0.71267200 0.49980400 -0.02280500
v 0.44464000 0.55179400 -0.09999900
v 0.59145600 0.69980300 -0.01741900
v 0.29229700 0.69981900 -0.02560700
v 0.24576900 0.49983200 -0.09989800
v 0.24576900 0.49983200 -0.09989800
v 0.89735300 0.66279400 -0.10000000
v 0.42624900 0.65870600 -0.10000100
v 0.28864900 0.49982000 -0.04933600
v 0.63341700 0.49980300 -0.06071200
v 0.96011400 0.69980000 -0.10000000
v 0.96011400 0.69980000 -0.10000000
v 0.11077000 0.49995900 0.04999400
v 0.19889800 0.49986000 0.09999900
v 0.19889800 0.49986000 0.09999900
v 0.19889800 0.49985500 0.02467400
v 0.27593100 0.69982300 -0.06756800
v 0.21570700 0.65882800 0.10000200
v 0.40649100 0.63402100 0.10000100
v 0.16540300 0.49988800 -0.06315300
v 0.14645900 0.53594900 0.10000300
v 0.67669900 0.59604300 -0.10000000
v 0.53129100 0.53665100 -0.10000000
v 0.40570000 0.54980300 -0.09999900
v 0.29171600 0.69981800 -0.09976900
v 0.29171600 0.69981800 -0.09976900
v 0.27795600 0.62010500 0.10000100
v 0.73357200 0.69980400 0.06937500
v 0.13594000 0.61126500 -0.09999500
v 0.93485200 0.60406700 -0.10000000
v 0.68794000 0.69980400 0.02688500
v 0.85527700 0.56727500 0.10000000
v 0.77598100 0.63746700 0.10000000
v 0.77598100 0.49980400 -0.06299000
v 0.51844500 0.62520200 -0.10000000
v 0.62609300 0.54914900 0.10000000
v 0.12574100 0.69993500 0.05902700
v 0.91624600 0.49980400 0.03631700
v 0.74075800 0.49980400 -0.05347500
v 0.19816600 0.57714100 0.10000000
v 0.24879000 0.49983000 0.01121200
v 0.39035800 0.49980600 0.00239300
v 0.84812700 0.66442500 -0.10000000
v 0.18169500 0.53784200 0.09999900
v 0.69222300 0.56158800 -0.10000000
v 0.33318300 0.69980900 -0.10000300
v 0.33318300 0.69980900 -0.10000300
v 0.76716700 0.56860800 -0.10000000
v 0.71942300 0.64756400 0.10000000
v 0.89388700 0.58025700 -0.10000000
v 0.65075100 0.69980300 0.06568100
v 0.79888800 0.58141300 0.10000000
v 0.17444000 0.59950600 0.10000200
v 0.91901600 0.69980400 -0.10000000
v 0.91901600 0.69980400 -0.10000000
v 0.14824100 0.62382500 0.10000000
v 0.70888100 0.49980400 0.06528500
v 0.53928100 0.69980300 -0.10000000
v 0.53928100 0.69980300 -0.10000000
v 0.41369000 0.69980400 0.07467600
v 0.83775400 0.58032300 -0.10000000
v 0.55205800 0.49980300 0.04917200
v 0.43820200 0.49980400 -0.00827000
v 0.14725800 0.53125100 -0.10001000
v 0.65522600 0.52846800 -0.10000000
v 0.90505900 0.59083400 0.10000000
v 0.07222700 0.65965400 0.10000000
v 0.92566700 0.64090400 0.10000000
v 0.55017900 0.69980300 0.02598100
v 0.91549100 0.64237600 -0.10000000
v 0.32502700 0.62448100 0.10000100
v 0.09174700 0.70000000 0.02575300
v 0.95886000 0.59980400 0.10000000
v 0.95886000 0.49980400 0.10000000
v 0.95886000 0.49980400 0.10000000
v 0.66407600 0.49980300 -0.03106100
v 0.80634800 0.66083000 -0.10000000
v 0.34631600 0.69981000 -0.02393300
v 0.03079600 0.50000000 0.06079600
v 0.95160500 0.49980400 0.02467300
v 0.93784500 0.49980400 -0.05000000
v 0.49118900 0.53179300 0.09999900
v 0.04818100 0.50000000 -0.05781600
v 0.37131700 0.60391500 0.10000000
v 0.04107700 0.67314900 0.10000000
v 0.17682100 0.49987500 0.06770100
v 0.26499000 0.58420700 -0.10000000
v 0.25385400 0.69983000 0.06234000
v 0.76111800 0.53421900 0.10000000
v 0.39228600 0.67081600 0.10000200
v 0.25353400 0.58041700 0.09999900
v 0.49999800 0.49980300 0.05065300
v 0.09564600 0.58305400 0.10000000
v 0.04928700 0.50000000 -0.10000000
v 0.04928700 0.50000000 -0.10000000
v 0.71386300 0.60561900 0.10000000
v 0.53319100 0.49980300 -0.02690100
v 0.61709500 0.49980300 -0.01467700
v 0.29927100 0.49981500 -0.09999600
v 0.29927100 0.49981500 -0.09999600
v 0.50771900 0.61140000 0.10000000
v 0.62835900 0.66426400 -0.10000000
v 0.47812800 0.58312600 -0.10000000
v 0.52444100 0.57512900 -0.10000000
v 0.91772100 0.49980400 0.10000000
v 0.91772100 0.49980400 0.10000000
v 0.81237700 0.65699800 0.10000000
v 0.32501700 0.54915400 0.09999800
v 0.67321800 0.69980400 -0.06847600
v 0.19680200 0.60246600 -0.10000100
v 0.62675400 0.69980300 0.10000100
v 0.62675400 0.69980300 0.10000100
v 0.59283400 0.63465900 0.10000000
v 0.29337800 0.69981700 0.06513100
v 0.50854600 0.49980300 0.09999900
v 0.50854600 0.49980300 0.09999900
v 0.37233100 0.56438900 0.09999900
v 0.43786700 0.69980400 -0.05107200
v 0.70077900 0.53697200 0.10000000
v 0.28599500 0.49982000 -0.01131800
v 0.39217100 0.69980500 -0.06370500
v 0.62756300 0.65725700 0.10000000
v 0.31300300 0.63262400 -0.10000100
v 0.73834700 0.66863500 0.10000000
v 0.80337100 0.69980400 0.05439100
v 0.26478800 0.53465100 -0.09999700
v 0.20187600 0.69985400 -0.01902700
v 0.07413200 0.70000000 -0.05065400
v 0.43598800 0.69980400 -0.01094500
v 0.17058000 0.69988000 0.02083200
v 0.83656400 0.49980400 0.06380800
v 0.41845200 0.57905900 0.09999900
v 0.74030800 0.69980400 -0.06695900
v 0.08763600 0.70000000 -0.01321000
v 0.59886800 0.62287700 -0.10000000
v 0.67974100 0.63943300 0.10000000
v 0.96505300 0.49980400 0.06946500
v 0.59037400 0.57021500 0.10000000
v 0.44426200 0.49980400 -0.05108900
v 0.61159900 0.60459400 0.10000000
v 0.26759900 0.62717700 -0.10000100
v 0.54235100 0.69980300 -0.02779500
v 0.23963100 0.69983600 -0.04210000
v 0.90164700 0.69980400 0.07176300
v 0.02875100 0.70000000 0.06865700
v 0.19666400 0.69986300 -0.09999700
v 0.19666400 0.69986300 -0.09999700
v 0.09791200 0.50000000 -0.03200900
v 0.58751200 0.54072700 -0.10000000
v 0.13400800 0.69993400 -0.06564900
v 0.43749600 0.49980300 -0.09999800
v 0.43749600 0.49980300 -0.09999800
v 0.43749600 0.49980300 0.09999800
v 0.43749600 0.49980300 0.09999800
v 0.43749600 0.49980400 0.04374900
v 0.50322400 0.69980300 -0.06381400
v 0.55017700 0.49980300 0.09999900
v 0.55017700 0.49980300 0.09999900
v 0.55017700 0.49980300 -0.09999900
v 0.55017700 0.49980300 -0.09999900
v 0.45584100 0.54011400 0.09999900
v 0.22659300 0.54259200 0.09999900
v 0.31248100 0.69981400 -0.06421700
v 0.17185000 0.64601400 -0.09999700
v 0.14049000 0.69992800 -0.09999000
v 0.14049000 0.69992800 -0.09999000
v 0.56909800 0.49980300 0.00495800
v 0.05268200 0.50000000 -0.01733200
v 0.03706600 0.70000000 -0.03157700
v 0.76088300 0.69980400 -0.10000000
v 0.76088300 0.69980400 -0.10000000
v 0.32779500 0.69981200 0.02947900
v 0.27486700 0.69982100 0.10000600
v 0.27486700 0.69982100 0.10000600
v 0.64843500 0.69980300 -0.01419300
v 0.05009900 0.53561300 -0.10000000
v 0.90142700 0.49980400 -0.10000000
v 0.90142700 0.49980400 -0.10000000
v 0.90142700 0.69980400 -0.02467300
v 0.37784300 0.60022400 -0.10000000
v 0.64395500 0.69980300 -0.10000000
v 0.64395500 0.69980300 -0.10000000
v 0.81398000 0.53620700 0.10000000
v 0.31542000 0.69981100 0.10000500
v 0.31542000 0.69981100 0.10000500
v 0.22108400 0.49984400 0.06623000
v 0.50223600 0.69980300 -0.00498400
v 0.66089200 0.49980300 0.06592500
v 0.95785200 0.69980400 -0.05791100
v 0.95529200 0.65896700 -0.10000000
v 0.66505200 0.58232200 0.10000000
v 0.94498800 0.69980400 0.01183400
v 0.84352500 0.49980400 -0.09957500
v 0.84352500 0.49980400 -0.09957500
v 0.84352500 0.49980400 -0.09957500
v 0.72691700 0.69980400 -0.00682800
v 0.12595700 0.69993600 -0.02097200
v 0.83968500 0.60865600 0.10000000
v 0.81201400 0.49980400 0.10000000
v 0.81201400 0.49980400 0.10000000
v 0.50731000 0.64516400 0.10000100
v 0.47326200 0.67119000 0.10000100
v 0.80107000 0.62447700 -0.10000000
v 0.80107000 0.49980400 -0.10000000
v 0.80107000 0.49980400 -0.10000000
v 0.80107000 0.49980400 -0.10000000
v 0.80107000 0.69980400 -0.10000000
v 0.80107000 0.69980400 -0.10000000
v 0.76459000 0.64035700 -0.10000000
v 0.80520700 0.49980400 0.02561900
v 0.48149500 0.65611400 -0.10000000
v 0.86754300 0.49980400 0.10000000
v 0.86754300 0.49980400 0.10000000
v 0.32175100 0.49981200 0.06366500
vn -1.00000000 0.00000000 0.00000000
vn -1.00000000 0.00000000 0.00000000
vn -1.00000000 0.00000000 0.00000000
vn -1.00000000 0.00000000 0.00000000
vn -0.00000000 -0.00000000 -1.00000000
vn -1.00000000 0.00000000 0.00000000
vn -0.00000000 -0.00000000 1.00000000
vn -1.00000000 0.00000000 0.00000000
vn 0.00000000 1.00000000 0.00000000
vn -1.00000000 0.00000000 0.00000000
vn 0.00000000 1.00000000 0.00000000
vn -1.00000000 0.00000000 0.00000000
vn -0.00000000 -0.00000000 -1.00000000
vn 0.00000000 1.00000000 0.00000000
vn -1.00000000 0.00000000 0.00000000
vn -0.00000000 -0.00000000 1.00000000
vn 0.00000000 1.00000000 0.00000000
vn -1.00000000 0.00000000 0.00000000
vn 0.00000000 1.00000000 0.00000000
vn -1.00000000 0.00000000 0.00000000
vn -0.00000000 -1.00000000 0.00000000
vn -1.00000000 0.00000000 0.00000000
vn -0.00000000 -1.00000000 0.00000000
vn -1.00000000 0.00000000 0.00000000
vn -0.00000000 -0.00000000 -1.00000000
vn -0.00000000 -1.00000000 0.00000000
vn -1.00000000 0.00000000 0.00000000
vn -0.00000000 -0.00000000 1.00000000
vn -0.00000000 -1.00000000 0.00000000
vn -1.00000000 0.00000000 0.00000000
vn -0.00000000 -1.00000000 0.00000000
vn -1.00000000 0.00000000 0.00000000
vn -1.00000000 0.00000000 0.00000000
vn -1.00000000 0.00000000 0.00000000
vn -1.00000000 0.00000000 0.00000000
vn -1.00000000 0.00000000 0.00000000
vn -0.00000000 -0.00000000 -1.00000000
vn -1.00000000 0.00000000 0.00000000
vn -0.00000000 -0.00000000 1.00000000
vn -1.00000000 0.00000000 0.00000000
vn -1.00000000 0.00000000 0.00000000
vn -1.00000000 0.00000000 0.00000000
vn -0.00000000 -0.00000000 -1.00000000
vn -1.00000000 0.00000000 0.00000000
vn -0.00000000 -0.00000000 1.00000000
vn -1.00000000 0.00000000 0.00000000
vn -1.00000000 0.00000000 0.00000000
vn -1.00000000 0.00000000 0.00000000
vn -0.00000000 -0.00000000 -1.00000000
vn -0.00010000 -1.00000000 0.00000000
vn -0.00020000 -1.00000000 0.00000000
vn -0.00030000 -1.00000000 -0.00000000
vn -0.00000000 -1.00000000 0.00000000
vn -0.00000000 -0.00000000 1.00000000
vn -0.00070000 -1.00000000 -0.00000000
vn -0.00000000 -0.00000000 -1.00000000
vn 1.00000000 -0.00000000 0.00000000
vn 1.00000000 -0.00000000 0.00000000
vn -0.00000000 -0.00000000 1.00000000
vn 1.00000000 -0.00000000 0.00000000
vn -0.00000000 -0.00000000 -1.00000000
vn 1.00000000 -0.00000000 0.00000000
vn 1.00000000 -0.00000000 0.00000000
vn 1.00000000 -0.00000000 0.00000000
vn 1.00000000 -0.00000000 0.00000000
vn 1.00000000 -0.00000000 0.00000000
vn 1.00000000 -0.00000000 0.00000000
vn 1.00000000 -0.00000000 0.00000000
vn 1.00000000 -0.00000000 0.00000000
vn -0.00000000 -0.00000000 -1.00000000
vn 1.00000000 -0.00000000 0.00000000
vn 1.00000000 -0.00000000 0.00000000
vn -0.00000000 -0.00000000 1.00000000
vn 1.00000000 -0.00000000 0.00000000
vn -0.00000000 -0.00000000 1.00000000
vn 1.00000000 -0.00000000 0.00000000
vn 1.00000000 -0.00000000 0.00000000
vn 1.00000000 -0.00000000 0.00000000
vn 1.00000000 -0.00000000 0.00000000
vn 1.00000000 -0.00000000 0.00000000
vn 1.00000000 -0.00000000 0.00000000
vn 1.00000000 -0.00000000 0.00000000
vn -0.00000000 -1.00000000 0.00000000
vn 1.00000000 -0.00000000 0.00000000
vn -0.00000000 -1.00000000 0.00000000
vn 1.00000000 -0.00000000 0.00000000
vn -0.00000000 -0.00000000 -1.00000000
vn -0.00000000 -1.00000000 0.00000000
vn 1.00000000 -0.00000000 0.00000000
vn -0.00000000 -0.00000000 1.00000000
vn -0.00000000 -1.00000000 0.00000000
vn 1.00000000 -0.00000000 0.00000000
vn -0.00000000 -1.00000000 0.00000000
vn 1.00000000 -0.00000000 0.00000000
vn 0.00000000 1.00000000 0.00000000
vn 1.00000000 -0.00000000 0.00000000
vn 0.00000000 1.00000000 0.00000000
vn 1.00000000 -0.00000000 0.00000000
vn -0.00000000 -0.00000000 -1.00000000
vn -0.00010000 1.00000000 -0.00000000
vn 1.00000000 -0.00000000 0.00000000
vn -0.00000000 -0.00000000 1.00000000
vn 0.00000000 1.00000000 0.00000000
vn 1.00000000 -0.00000000 0.00000000
vn 0.00000000 1.00000000 0.00000000
vn 1.00000000 -0.00000000 0.00000000
vn -0.00000000 -0.00000000 -1.00000000
vn -0.00000000 -1.00000000 0.00000000
vn -0.00000000 -1.00000000 0.00000000
vn -0.00000000 -0.00000000 -1.00000000
vn 0.00000000 1.00000000 0.00000000
vn -0.00000000 -0.00000000 1.00000000
vn 0.00000000 1.00000000 0.00000000
vn 0.00000000 1.00000000 0.00000000
vn -0.00000000 -0.00000000 -1.00000000
vn -0.00000000 -0.00000000 -1.00000000
vn 0.00000000 1.00000000 0.00000000
vn -0.00040000 -1.00000000 0.00020000
vn -0.00000000 -0.00000000 1.00000000
vn 0.00000000 1.00000000 0.00000000
vn -0.00000000 -0.00000000 1.00000000
vn 0.00000000 1.00000000 0.00000000
vn -0.00010000 -1.00000000 0.00000000
vn -0.00000000 -0.00000000 -1.00000000
vn -0.00000000 -0.00000000 1.00000000
vn -0.00000000 -0.00000000 1.00000000
vn -0.00000000 -0.00000000 -1.00000000
vn -0.00000000 -0.00000000 -1.00000000
vn 0.00000000 1.00000000 0.00000000
vn -0.00020000 -1.00000000 0.00000000
vn -0.00000000 -0.00000000 1.00000000
vn -0.00000000 -1.00000000 0.00000000
vn -0.00000000 -0.00000000 1.00000000
vn -0.00000000 -0.00000000 -1.00000000
vn -0.00000000 -0.00000000 1.00000000
vn -0.00000000 -0.00000000 1.00000000
vn 0.00000000 1.00000000 0.00000000
vn -0.00000000 -0.00000000 1.00000000
vn 0.00000000 1.00000000 0.00000000
vn -0.00010000 -1.00000000 0.00000000
vn -0.00000000 -0.00000000 -1.00000000
vn -0.00000000 -1.00000000 0.00000000
vn 0.00010000 -0.00010000 -1.00000000
vn 0.00090000 1.00000000 0.00030000
vn -0.00010000 -0.00010000 -1.00000000
vn -0.00160000 -1.00000000 -0.00020000
vn -0.00000000 -1.00000000 0.00000000
vn -0.00000000 -0.00000000 -1.00000000
vn -0.00000000 -1.00000000 0.00000000
vn -0.00010000 -1.00000000 0.00000000
vn 0.00000000 1.00000000 0.00000000
vn -0.00000000 -0.00000000 1.00000000
vn -0.00000000 -0.00000000 1.00000000
vn 0.00000000 1.00000000 0.00000000
vn -0.00000000 -0.00000000 -1.00000000
vn 0.00010000 1.00000000 -0.00000000
vn 0.00050000 1.00000000 0.00000000
vn -0.00000000 -1.00000000 0.00000000
vn -0.00010000 0.00000000 1.00000000
vn 0.00330000 -0.00310000 -1.00000000
vn 0.00000000 1.00000000 0.00000000
vn -0.00000000 -0.00000000 1.00000000
vn -0.00000000 -1.00000000 0.00000000
vn -0.00000000 -0.00000000 1.00000000
vn -0.00000000 -0.00000000 1.00000000
vn -0.00000000 -0.00000000 1.00000000
vn 0.00000000 1.00000000 0.00000000
vn -0.00000000 -0.00000000 1.00000000
vn -0.00000000 -0.00000000 -1.00000000
vn -0.00000000 -0.00000000 1.00000000
vn 0.00000000 1.00000000 0.00000000
vn -0.00000000 -0.00000000 1.00000000
vn -0.00000000 -0.00000000 1.00000000
vn -0.00000000 -0.00000000 -1.00000000
vn -0.00000000 -0.00000000 1.00000000
vn 0.00000000 1.00000000 0.00000000
vn -0.00000000 -0.00000000 1.00000000
vn -0.00000000 -1.00000000 0.00000000
vn -0.00000000 -0.00000000 -1.00000000
vn 0.00110000 1.00000000 0.00010000
vn 0.00020000 -0.00050000 -1.00000000
vn 0.00010000 1.00000000 -0.00000000
vn 0.00360000 0.00730000 -1.00000000
vn 0.00040000 1.00000000 0.00000000
vn -0.00000000 -0.00000000 -1.00000000
vn -0.00000000 -0.00000000 -1.00000000
vn 0.00000000 1.00000000 0.00000000
vn -0.00000000 -1.00000000 0.00000000
vn -0.00000000 -0.00000000 1.00000000
vn -0.00000000 -1.00000000 0.00000000
vn -0.00000000 -0.00000000 1.00000000
vn -0.00000000 -1.00000000 0.00000000
vn -0.00010000 0.00000000 1.00000000
vn 0.00060000 1.00000000 -0.00000000
vn -0.00020000 -0.00600000 -1.00000000
vn 0.01000000 -0.00110000 -0.99990000
vn 0.00000000 1.00000000 0.00000000
vn 0.00000000 1.00000000 0.00000000
vn -0.00000000 -0.00000000 1.00000000
vn 0.00000000 1.00000000 0.00000000
vn 0.00000000 1.00000000 0.00000000
vn 0.00010000 0.00000000 1.00000000
vn 0.00020000 1.00000000 0.00010000
vn -0.00000000 -0.00000000 -1.00000000
vn -0.00000000 -1.00000000 0.00000000
vn -0.00000000 -0.00000000 1.00000000
vn -0.00000000 -1.00000000 0.00000000
vn -0.00000000 -0.00000000 1.00000000
vn -0.00000000 -0.00000000 1.00000000
vn -0.00000000 -1.00000000 0.00000000
vn -0.00000000 -0.00000000 1.00000000
vn -0.00000000 -0.00000000 1.00000000
vn -0.00000000 -1.00000000 0.00000000
vn -0.00000000 -0.00000000 -1.00000000
vn 0.00010000 0.00010000 -1.00000000
vn -0.00080000 -1.00000000 -0.00000000
vn 0.00000000 1.00000000 0.00000000
vn -0.00000000 -0.00000000 -1.00000000
vn -0.00000000 -1.00000000 0.00000000
vn 0.00040000 1.00000000 0.00000000
vn 0.00010000 1.00000000 -0.00000000
vn 0.00000000 1.00000000 0.00000000
vn -0.00000000 -0.00000000 -1.00000000
vn -0.00000000 -0.00000000 1.00000000
vn -0.00030000 -1.00000000 -0.00000000
vn 0.00470000 0.00520000 -1.00000000
vn 0.00150000 1.00000000 0.00000000
vn -0.00000000 -1.00000000 0.00000000
vn 0.00000000 0.00010000 -1.00000000
vn -0.00000000 -0.00000000 -1.00000000
vn 0.00000000 1.00000000 0.00000000
vn -0.00000000 -0.00000000 1.00000000
vn 0.00000000 1.00000000 0.00000000
vn 0.00000000 1.00000000 0.00000000
vn -0.00000000 -0.00000000 1.00000000
vn 0.00010000 0.00000000 -1.00000000
vn -0.00020000 -1.00000000 0.00000000
vn -0.00000000 -1.00000000 0.00000000
vn -0.00000000 -0.00000000 1.00000000
vn -0.00000000 -0.00000000 -1.00000000
vn -0.00000000 -1.00000000 0.00000000
vn 0.00000000 1.00000000 0.00000000
vn -0.00010000 -1.00000000 0.00000000
vn -0.00000000 0.00010000 1.00000000
vn -0.00090000 -1.00000000 0.00030000
vn -0.00000000 -1.00000000 0.00000000
vn -0.00000000 -0.00010000 1.00000000
vn -0.00000000 -0.00000000 1.00000000
vn -0.00000000 -1.00000000 0.00000000
vn -0.00000000 -0.00000000 -1.00000000
vn 0.00000000 1.00000000 0.00000000
vn -0.00000000 -0.00000000 -1.00000000
vn -0.00000000 -1.00000000 0.00000000
vn -0.00000000 -0.00000000 -1.00000000
vn -0.00000000 -0.00000000 1.00000000
vn -0.00020000 -1.00000000 0.00000000
vn -0.00000000 0.00010000 1.00000000
vn 0.00120000 1.00000000 -0.00000000
vn -0.00010000 0.00000000 -1.00000000
vn -0.00000000 -0.00000000 1.00000000
vn -0.00000000 -0.00000000 -1.00000000
vn -0.00000000 -0.00000000 -1.00000000
vn -0.00000000 -0.00000000 -1.00000000
vn -0.00000000 -0.00000000 1.00000000
vn -0.00130000 -1.00000000 0.00020000
vn -0.00000000 -0.00000000 -1.00000000
vn -0.00150000 -1.00000000 -0.00010000
vn -0.00010000 -1.00000000 0.00000000
vn -0.00110000 -1.00000000 -0.00010000
vn -0.00000000 -0.00000000 1.00000000
vn -0.00000000 -1.00000000 0.00000000
vn 0.00000000 1.00000000 0.00000000
vn -0.00000000 -0.00000000 1.00000000
vn 0.00010000 1.00000000 -0.00000000
vn -0.00000000 -0.00000000 1.00000000
vn -0.00010000 -1.00000000 0.00000000
vn -0.00000000 -0.00000000 -1.00000000
vn 0.00010000 1.00000000 -0.00000000
vn -0.00000000 -0.00000000 1.00000000
vn 0.00030000 1.00000000 0.00000000
vn -0.00000000 -0.00000000 -1.00000000
vn 0.00000000 1.00000000 0.00000000
vn 0.00000000 -0.00010000 -1.00000000
vn 0.00000000 1.00000000 0.00000000
vn -0.00000000 -1.00000000 0.00000000
vn -0.00000000 -0.00000000 -1.00000000
vn -0.00000000 -1.00000000 0.00000000
vn -0.00000000 -1.00000000 0.00000000
vn -0.00000000 -0.00000000 1.00000000
vn -0.00000000 -0.00000000 -1.00000000
vn 0.00010000 1.00000000 -0.00000000
vn 0.00000000 1.00000000 0.00000000
vn 0.00000000 1.00000000 0.00000000
vn 0.00090000 1.00000000 -0.00000000
vn -0.00010000 0.00000000 -1.00000000
vn -0.00000000 -0.00000000 -1.00000000
vn -0.00000000 -0.00000000 -1.00000000
vn -0.00000000 -0.00000000 1.00000000
vn -0.00040000 -1.00000000 -0.00000000
vn -0.00120000 -1.00000000 0.00010000
vn 0.00000000 1.00000000 0.00000000
vn -0.00130000 -1.00000000 -0.00010000
vn 0.00000000 1.00000000 0.00000000
vn -0.00000000 -1.00000000 0.00000000
vn -0.00000000 -1.00000000 0.00000000
vn -0.00000000 -0.00000000 1.00000000
vn 0.00010000 1.00000000 -0.00000000
vn -0.00040000 -1.00000000 -0.00000000
vn -0.00000000 -0.00000000 -1.00000000
vn -0.00000000 -1.00000000 0.00000000
vn 0.00000000 1.00000000 0.00000000
vn 0.00080000 1.00000000 0.00010000
vn -0.00000000 -0.00000000 1.00000000
vn 0.00000000 1.00000000 0.00000000
vn -0.00000000 -0.00000000 1.00000000
vn 0.00000000 0.00010000 -1.00000000
vn -0.00000000 -0.00000000 -1.00000000
vn -0.00000000 -0.00000000 1.00000000
vn -0.00000000 -0.00000000 1.00000000
vn 0.00000000 1.00000000 0.00000000
vn -0.00000000 -0.00000000 -1.00000000
vn -0.00000000 -0.00000000 1.00000000
vn 0.00000000 1.00000000 0.00000000
vn -0.00000000 -1.00000000 0.00000000
vn -0.00000000 -0.00000000 -1.00000000
vn 0.00000000 1.00000000 0.00000000
vn 0.00020000 1.00000000 0.00000000
vn -0.00010000 -0.00170000 -1.00000000
vn -0.00040000 -1.00000000 -0.00000000
vn -0.00000000 -0.00000000 -1.00000000
vn -0.00000000 -0.00000000 -1.00000000
vn -0.00030000 -1.00000000 -0.00000000
vn -0.00000000 -1.00000000 0.00000000
vn -0.00000000 -0.00000000 -1.00000000
vn -0.00000000 1.00000000 -0.00010000
vn -0.00120000 -1.00000000 0.00020000
vn 0.00010000 0.00000000 1.00000000
vn -0.00070000 -1.00000000 0.00010000
vn -0.00070000 -1.00000000 -0.00000000
vn 0.00030000 1.00000000 0.00000000
vn -0.00010000 0.00000000 1.00000000
vn -0.00000000 -0.00000000 1.00000000
vn -0.00120000 -1.00000000 -0.00020000
vn -0.00000000 0.00010000 1.00000000
vn -0.00000000 -0.00000000 -1.00000000
vn -0.00000000 -0.00000000 -1.00000000
vn -0.00000000 -0.00000000 -1.00000000
vn -0.00470000 0.00800000 -1.00000000
vn 0.00030000 1.00000000 0.00000000
vn -0.00000000 -0.00010000 1.00000000
vn 0.00000000 1.00000000 0.00000000
vn -0.00010000 0.00010000 -1.00000000
vn -0.00000000 -0.00000000 -1.00000000
vn 0.00000000 1.00000000 0.00000000
vn -0.00000000 -0.00000000 1.00000000
vn -0.00000000 -0.00000000 1.00000000
vn -0.00000000 -1.00000000 0.00000000
vn -0.00000000 -0.00000000 -1.00000000
vn -0.00000000 -0.00000000 1.00000000
vn 0.00130000 1.00000000 0.00000000
vn -0.00000000 -1.00000000 0.00000000
vn -0.00000000 -1.00000000 0.00000000
vn -0.00000000 -0.00000000 1.00000000
vn -0.00040000 -1.00000000 -0.00000000
vn -0.00010000 -1.00000000 0.00000000
vn -0.00000000 -0.00000000 -1.00000000
vn 0.00010000 0.00000000 1.00000000
vn -0.00000000 -0.00000000 -1.00000000
vn -0.00350000 0.00490000 -1.00000000
vn 0.00010000 1.00000000 -0.00000000
vn -0.00000000 -0.00000000 -1.00000000
vn -0.00000000 -0.00000000 1.00000000
vn -0.00000000 -0.00000000 -1.00000000
vn 0.00000000 1.00000000 0.00000000
vn -0.00000000 -0.00000000 1.00000000
vn -0.00000000 -0.00000000 1.00000000
vn -0.00000000 -0.00000000 -1.00000000
vn 0.00000000 1.00000000 0.00000000
vn -0.00000000 -0.00000000 1.00000000
vn -0.00000000 -1.00000000 0.00000000
vn -0.00000000 -0.00000000 -1.00000000
vn 0.00000000 1.00000000 0.00000000
vn 0.00000000 1.00000000 0.00000000
vn -0.00000000 -0.00000000 -1.00000000
vn -0.00000000 -1.00000000 0.00000000
vn -0.00000000 -1.00000000 0.00000000
vn -0.00000000 -0.00000000 -1.00000000
vn -0.00000000 -0.00000000 -1.00000000
vn -0.00000000 -0.00000000 1.00000000
vn -0.00000000 -0.00000000 1.00000000
vn -0.00000000 -0.00000000 1.00000000
vn 0.00000000 1.00000000 0.00000000
vn -0.00000000 -0.00000000 -1.00000000
vn -0.00000000 -0.00000000 1.00000000
vn 0.00160000 1.00000000 -0.00020000
vn -0.00000000 -0.00000000 1.00000000
vn -0.00000000 -0.00000000 1.00000000
vn -0.00000000 -1.00000000 0.00000000
vn -0.00000000 -1.00000000 0.00000000
vn -0.00000000 -0.00000000 -1.00000000
vn 0.00010000 1.00000000 -0.00000000
vn -0.00000000 -1.00000000 0.00000000
vn -0.00000000 -1.00000000 0.00000000
vn -0.00000000 -1.00000000 0.00000000
vn -0.00000000 -0.00000000 1.00000000
vn -0.00000000 -1.00000000 0.00000000
vn -0.00000000 -0.00000000 1.00000000
vn -0.00000000 -0.00000000 1.00000000
vn -0.00100000 -1.00000000 0.00010000
vn -0.00000000 -0.00000000 -1.00000000
vn 0.00040000 1.00000000 0.00000000
vn -0.00000000 -0.00000000 1.00000000
vn -0.00000000 -0.00000000 1.00000000
vn -0.00000000 -0.00000000 1.00000000
vn -0.00000000 -1.00000000 0.00000000
vn -0.00000000 -0.00000000 1.00000000
vn -0.00000000 -0.00000000 -1.00000000
vn -0.00000000 -1.00000000 0.00000000
vn -0.00000000 -0.00000000 1.00000000
vn -0.00000000 -1.00000000 0.00000000
vn -0.00000000 -1.00000000 0.00000000
vn -0.00050000 -0.00050000 -1.00000000
vn -0.00020000 -1.00000000 0.00000000
vn -0.00000000 -0.00000000 1.00000000
vn -0.00000000 -0.00000000 -1.00000000
vn -0.00000000 -0.00000000 -1.00000000
vn -0.00000000 -0.00000000 -1.00000000
vn -0.00000000 -0.00000000 1.00000000
vn -0.00000000 -1.00000000 0.00000000
vn -0.00000000 -0.00000000 1.00000000
vn -0.00000000 -0.00000000 1.00000000
vn 0.00000000 1.00000000 0.00000000
vn -0.00000000 -0.00000000 -1.00000000
vn -0.00000000 -0.00000000 1.00000000
vn 0.00000000 1.00000000 0.00000000
vn -0.00000000 -0.00000000 1.00000000
vn 0.00020000 1.00000000 0.00000000
vn -0.00000000 -0.00000000 1.00000000
vn -0.00000000 -1.00000000 0.00000000
vn -0.00000000 -0.00000000 1.00000000
vn 0.00000000 1.00000000 0.00000000
vn -0.00000000 -0.00000000 1.00000000
vn -0.00030000 -1.00000000 -0.00000000
vn 0.00010000 1.00000000 -0.00000000
vn -0.00000000 -0.00000000 1.00000000
vn -0.00000000 -0.00000000 -1.00000000
vn -0.00000000 -0.00000000 1.00000000
vn 0.00000000 1.00000000 0.00000000
vn -0.00060000 -0.00090000 -1.00000000
vn 0.00070000 1.00000000 0.00000000
vn 0.00050000 1.00000000 0.00000000
vn 0.00000000 1.00000000 0.00000000
vn 0.00100000 1.00000000 -0.00000000
vn -0.00000000 -1.00000000 0.00000000
vn -0.00000000 -0.00000000 1.00000000
vn 0.00000000 1.00000000 0.00000000
vn 0.00090000 1.00000000 -0.00020000
vn -0.00000000 -0.00000000 -1.00000000
vn -0.00000000 -0.00000000 1.00000000
vn -0.00000000 -1.00000000 0.00000000
vn -0.00000000 -0.00000000 1.00000000
vn -0.00000000 -1.00000000 0.00000000
vn -0.00000000 -0.00000000 1.00000000
vn -0.00000000 -0.00000000 -1.00000000
vn 0.00000000 1.00000000 0.00000000
vn 0.00040000 1.00000000 0.00000000
vn 0.00000000 1.00000000 0.00000000
vn 0.00000000 1.00000000 0.00000000
vn -0.00010000 0.00000000 -1.00000000
vn 0.00090000 1.00000000 0.00010000
vn -0.00010000 -1.00000000 -0.00010000
vn -0.00000000 -0.00000000 -1.00000000
vn 0.00130000 1.00000000 0.00020000
vn -0.00000000 -0.00000000 -1.00000000
vn -0.00000000 -1.00000000 0.00000000
vn -0.00000000 -0.00000000 1.00000000
vn -0.00000000 -1.00000000 0.00000000
vn -0.00000000 -1.00000000 0.00000000
vn 0.00000000 1.00000000 0.00000000
vn -0.00000000 -0.00000000 1.00000000
vn -0.00000000 -1.00000000 0.00000000
vn -0.00000000 -0.00000000 -1.00000000
vn -0.00000000 -1.00000000 0.00000000
vn -0.00000000 -0.00000000 1.00000000
vn -0.00000000 -0.00000000 1.00000000
vn 0.00020000 1.00000000 0.00000000
vn -0.00010000 0.00010000 -1.00000000
vn -0.00000000 -0.00000000 -1.00000000
vn 0.00140000 1.00000000 0.00010000
vn -0.00000000 -1.00000000 0.00000000
vn -0.00010000 -1.00000000 -0.00010000
vn 0.00000000 1.00000000 0.00000000
vn -0.00000000 -0.00000000 -1.00000000
vn 0.00000000 1.00000000 0.00000000
vn 0.00020000 1.00000000 0.00000000
vn -0.00000000 -0.00000000 1.00000000
vn 0.00030000 1.00000000 0.00000000
vn 0.00000000 1.00000000 0.00000000
vn -0.00000000 -0.00000000 -1.00000000
vn -0.00000000 -1.00000000 0.00000000
vn -0.00580000 -0.00380000 -1.00000000
vn 0.00000000 1.00000000 0.00000000
vn -0.00000000 -0.00000000 -1.00000000
vn -0.00000000 -0.00000000 -1.00000000
vn 0.00000000 1.00000000 0.00000000
vn -0.00000000 -0.00000000 1.00000000
vn -0.00000000 -0.00000000 1.00000000
vn 0.00020000 1.00000000 0.00000000
vn -0.00050000 -1.00000000 0.00000000
vn 0.00000000 1.00000000 0.00000000
vn -0.00000000 -1.00000000 0.00000000
vn 0.00000000 1.00000000 0.00000000
vn -0.00000000 -0.00000000 -1.00000000
vn -0.00000000 -0.00000000 1.00000000
vn 0.00000000 1.00000000 0.00000000
vn -0.00000000 -1.00000000 0.00000000
vn 0.01000000 -0.00110000 -0.99990000
vn -0.00650000 -0.00560000 -1.00000000
vn 0.00000000 1.00000000 0.00000000
vn 0.00140000 1.00000000 -0.00000000
vn -0.00000000 -0.00000000 1.00000000
vn -0.00000000 -0.00000000 1.00000000
vn -0.00000000 -1.00000000 0.00000000
vn -0.00000000 -0.00000000 1.00000000
vn -0.00000000 -0.00000000 1.00000000
vn -0.00000000 -0.00000000 -1.00000000
vn -0.00000000 -0.00000000 -1.00000000
vn -0.00000000 -1.00000000 0.00000000
vn 0.01000000 -0.00110000 -0.99990000
vn -0.00000000 -0.00000000 -1.00000000
vn 0.00000000 1.00000000 0.00000000
vn -0.00000000 -0.00000000 -1.00000000
vn -0.00000000 -1.00000000 0.00000000
vn -0.00000000 -0.00000000 -1.00000000
vn -0.00000000 -0.00000000 1.00000000
vn -0.00000000 -1.00000000 0.00000000
vn -0.00020000 -1.00000000 0.00000000
f 50//50 475//475 268//268
f 275//275 476//476 172//172
f 83//83 213//213 404//404
f 62//62 77//77 78//78
f 49//49 347//347 474//474
f 49//49 116//116 347//347
f 61//61 353//353 513//513
f 513//513 353//353 393//393
f 66//66 63//63 78//78
f 149//149 249//249 475//475
f 474//474 309//309 148//148
f 325//325 474//474 347//347
f 214//214 325//325 347//347
f 474//474 325//325 309//309
f 260//260 7//7 28//28
f 46//46 48//48 8//8
f 4//4 44//44 6//6
f 61//61 70//70 353//353
f 353//353 70//70 317//317
f 105//105 217//217 103//103
f 106//106 66//66 96//96
f 20//20 33//33 18//18
f 19//19 311//311 9//9
f 237//237 31//31 21//21
f 32//32 42//42 22//22
f 452//452 197//197 198//198
f 452//452 198//198 510//510
f 478//478 415//415 477//477
f 172//172 476//476 191//191
f 10//10 36//36 20//20
f 36//36 33//33 20//20
f 50//50 268//268 150//150
f 150//150 268//268 243//243
f 51//51 150//150 243//243
f 173//173 224//224 239//239
f 405//405 224//224 173//173
f 198//198 176//176 301//301
f 198//198 301//301 510//510
f 83//83 403//403 213//213
f 93//93 403//403 83//83
f 84//84 58//58 94//94
f 94//94 58//58 92//92
f 64//64 65//65 63//63
f 64//64 63//63 66//66
f 104//104 64//64 106//106
f 64//64 66//66 106//106
f 391//391 389//389 396//396
f 199//199 389//389 391//391
f 25//25 5//5 499//499
f 43//43 115//115 124//124
f 389//389 322//322 396//396
f 122//122 467//467 139//139
f 103//103 217//217 122//122
f 122//122 217//217 467//467
f 154//154 139//139 467//467
f 153//153 199//199 138//138
f 153//153 430//430 199//199
f 375//375 356//356 211//211
f 95//95 512//512 515//515
f 95//95 515//515 105//105
f 515//515 217//217 105//105
f 237//237 269//269 118//118
f 416//416 260//260 54//54
f 229//229 262//262 352//352
f 229//229 124//124 262//262
f 124//124 115//115 262//262
f 278//278 444//444 282//282
f 451//451 311//311 457//457
f 467//467 293//293 154//154
f 311//311 220//220 395//395
f 457//457 311//311 395//395
f 440//440 275//275 172//172
f 269//269 471//471 302//302
f 302//302 300//300 269//269
f 229//229 352//352 316//316
f 229//229 316//316 259//259
f 236//236 387//387 316//316
f 259//259 316//316 387//387
f 82//82 78//78 63//63
f 520//520 451//451 457//457
f 520//520 457//457 395//395
f 473//473 451//451 520//520
f 379//379 133//133 159//159
f 79//79 80//80 84//84
f 80//80 58//58 84//84
f 80//80 79//79 82//82
f 55//55 302//302 343//343
f 302//302 55//55 339//339
f 302//302 339//339 300//300
f 487//487 352//352 262//262
f 487//487 316//316 352//352
f 316//316 487//487 433//433
f 372//372 211//211 356//356
f 419//419 211//211 372//372
f 372//372 459//459 419//419
f 389//389 319//319 322//322
f 443//443 51//51 130//130
f 450//450 466//466 312//312
f 357//357 528//528 285//285
f 236//236 316//316 181//181
f 316//316 433//433 181//181
f 364//364 339//339 55//55
f 364//364 443//443 130//130
f 339//339 364//364 509//509
f 364//364 308//308 443//443
f 364//364 55//55 308//308
f 414//414 133//133 363//363
f 363//363 485//485 414//414
f 433//433 487//487 155//155
f 453//453 294//294 157//157
f 450//450 157//157 466//466
f 157//157 450//450 453//453
f 155//155 179//179 464//464
f 7//7 126//126 45//45
f 260//260 126//126 7//7
f 168//168 126//126 416//416
f 126//126 260//260 416//416
f 59//59 75//75 396//396
f 92//92 58//58 60//60
f 396//396 322//322 59//59
f 73//73 396//396 75//75
f 76//76 65//65 74//74
f 104//104 74//74 64//64
f 74//74 65//65 64//64
f 21//21 406//406 491//491
f 21//21 491//491 237//237
f 491//491 406//406 471//471
f 269//269 237//237 491//491
f 269//269 491//491 471//471
f 155//155 464//464 410//410
f 181//181 410//410 449//449
f 449//449 410//410 297//297
f 418//418 406//406 26//26
f 25//25 499//499 417//417
f 70//70 87//87 218//218
f 317//317 70//70 218//218
f 447//447 372//372 356//356
f 466//466 157//157 280//280
f 391//391 396//396 208//208
f 121//121 208//208 102//102
f 121//121 391//391 208//208
f 73//73 208//208 396//396
f 102//102 208//208 73//73
f 466//466 280//280 327//327
f 495//495 327//327 280//280
f 386//386 365//365 268//268
f 243//243 268//268 365//365
f 478//478 365//365 386//386
f 431//431 275//275 440//440
f 407//407 431//431 440//440
f 51//51 243//243 140//140
f 130//130 51//51 140//140
f 243//243 365//365 140//140
f 443//443 332//332 51//51
f 443//443 308//308 332//332
f 407//407 394//394 431//431
f 426//426 325//325 214//214
f 325//325 426//426 309//309
f 342//342 164//164 407//407
f 413//413 164//164 342//342
f 394//394 407//407 164//164
f 221//221 401//401 495//495
f 495//495 401//401 327//327
f 477//477 276//276 123//123
f 123//123 478//478 477//477
f 478//478 123//123 365//365
f 123//123 140//140 365//365
f 214//214 347//347 503//503
f 116//116 503//503 347//347
f 141//141 214//214 503//503
f 197//197 291//291 198//198
f 197//197 221//221 291//291
f 291//291 221//221 495//495
f 495//495 182//182 291//291
f 172//172 191//191 455//455
f 455//455 342//342 407//407
f 440//440 172//172 455//455
f 407//407 440//440 455//455
f 318//318 342//342 455//455
f 125//125 405//405 173//173
f 318//318 455//455 125//125
f 318//318 135//135 524//524
f 173//173 135//135 125//125
f 318//318 125//125 135//135
f 427//427 309//309 426//426
f 420//420 147//147 249//249
f 534//534 358//358 214//214
f 358//358 426//426 214//214
f 426//426 358//358 427//427
f 458//458 358//358 128//128
f 305//305 385//385 415//415
f 305//305 147//147 420//420
f 479//479 510//510 465//465
f 510//510 301//301 392//392
f 392//392 465//465 510//510
f 385//385 490//490 310//310
f 490//490 420//420 238//238
f 305//305 490//490 385//385
f 305//305 420//420 490//490
f 336//336 118//118 269//269
f 300//300 336//336 269//269
f 358//358 458//458 254//254
f 358//358 254//254 427//427
f 419//419 248//248 211//211
f 211//211 248//248 375//375
f 465//465 326//326 187//187
f 465//465 392//392 326//326
f 374//374 303//303 435//435
f 303//303 326//326 392//392
f 433//433 127//127 181//181
f 433//433 155//155 127//127
f 410//410 181//181 127//127
f 127//127 155//155 410//410
f 490//490 421//421 310//310
f 238//238 421//421 490//490
f 485//485 298//298 165//165
f 485//485 165//165 414//414
f 431//431 414//414 165//165
f 43//43 124//124 174//174
f 5//5 43//43 174//174
f 174//174 124//124 229//229
f 5//5 174//174 499//499
f 259//259 174//174 229//229
f 499//499 174//174 259//259
f 327//327 340//340 466//466
f 409//409 300//300 339//339
f 409//409 339//339 509//509
f 336//336 300//300 409//409
f 509//509 52//52 299//299
f 52//52 364//364 130//130
f 509//509 364//364 52//52
f 537//537 130//130 140//140
f 123//123 276//276 537//537
f 123//123 537//537 140//140
f 537//537 52//52 130//130
f 310//310 421//421 192//192
f 399//399 192//192 421//421
f 310//310 192//192 511//511
f 458//458 261//261 254//254
f 514//514 419//419 459//459
f 514//514 463//463 359//359
f 320//320 187//187 326//326
f 458//458 128//128 425//425
f 425//425 128//128 186//186
f 273//273 168//168 390//390
f 273//273 45//45 126//126
f 168//168 273//273 126//126
f 134//134 261//261 458//458
f 425//425 263//263 134//134
f 134//134 458//458 425//425
f 224//224 461//461 239//239
f 463//463 239//239 461//461
f 463//463 461//461 359//359
f 485//485 363//363 367//367
f 402//402 29//29 31//31
f 237//237 402//402 31//31
f 402//402 237//237 118//118
f 91//91 460//460 93//93
f 460//460 403//403 93//93
f 464//464 179//179 321//321
f 179//179 226//226 321//321
f 180//180 473//473 520//520
f 180//180 520//520 453//453
f 312//312 473//473 180//180
f 450//450 180//180 453//453
f 180//180 450//450 312//312
f 498//498 320//320 326//326
f 395//395 220//220 360//360
f 294//294 453//453 360//360
f 452//452 274//274 197//197
f 274//274 452//452 444//444
f 274//274 221//221 197//197
f 274//274 444//444 401//401
f 221//221 274//274 401//401
f 158//158 386//386 147//147
f 386//386 158//158 478//478
f 158//158 415//415 478//478
f 158//158 147//147 305//305
f 415//415 158//158 305//305
f 8//8 35//35 30//30
f 8//8 48//48 35//35
f 35//35 48//48 42//42
f 30//30 35//35 32//32
f 32//32 35//35 42//42
f 510//510 242//242 452//452
f 479//479 242//242 510//510
f 282//282 242//242 272//272
f 272//272 242//242 479//479
f 419//419 442//442 248//248
f 419//419 514//514 442//442
f 514//514 359//359 442//442
f 399//399 109//109 192//192
f 192//192 109//109 511//511
f 399//399 324//324 109//109
f 380//380 109//109 188//188
f 380//380 511//511 109//109
f 220//220 311//311 468//468
f 17//17 468//468 19//19
f 468//468 311//311 19//19
f 152//152 239//239 162//162
f 524//524 152//152 162//162
f 368//368 388//388 261//261
f 169//169 290//290 368//368
f 432//432 320//320 498//498
f 223//223 169//169 134//134
f 223//223 134//134 263//263
f 175//175 119//119 413//413
f 77//77 62//62 57//57
f 77//77 57//57 101//101
f 513//513 56//56 61//61
f 513//513 99//99 56//56
f 2//2 38//38 44//44
f 37//37 115//115 43//43
f 13//13 115//115 37//37
f 222//222 432//432 498//498
f 498//498 354//354 222//222
f 1//1 2//2 3//3
f 10//10 2//2 1//1
f 1//1 3//3 33//33
f 10//10 1//1 36//36
f 36//36 1//1 33//33
f 83//83 404//404 85//85
f 79//79 84//84 86//86
f 85//85 219//219 88//88
f 85//85 404//404 219//219
f 406//406 23//23 26//26
f 406//406 21//21 23//23
f 24//24 6//6 27//27
f 4//4 6//6 24//24
f 98//98 77//77 101//101
f 96//96 77//77 98//98
f 100//100 512//512 97//97
f 97//97 512//512 95//95
f 2//2 10//10 12//12
f 11//11 323//323 14//14
f 9//9 323//323 11//11
f 38//38 12//12 15//15
f 2//2 12//12 38//38
f 41//41 44//44 4//4
f 41//41 2//2 44//44
f 3//3 2//2 41//41
f 3//3 41//41 42//42
f 41//41 4//4 42//42
f 444//444 441//441 282//282
f 444//444 452//452 441//441
f 282//282 441//441 242//242
f 452//452 242//242 441//441
f 462//462 268//268 475//475
f 386//386 268//268 462//462
f 475//475 249//249 462//462
f 462//462 147//147 386//386
f 249//249 147//147 462//462
f 33//33 46//46 40//40
f 33//33 40//40 18//18
f 273//273 39//39 45//45
f 281//281 331//331 277//277
f 331//331 534//534 214//214
f 281//281 534//534 331//331
f 331//331 214//214 141//141
f 331//331 141//141 277//277
f 248//248 412//412 375//375
f 248//248 442//442 412//412
f 246//246 385//385 310//310
f 432//432 222//222 456//456
f 519//519 234//234 161//161
f 234//234 519//519 354//354
f 519//519 222//222 354//354
f 161//161 456//456 519//519
f 222//222 519//519 456//456
f 354//354 351//351 234//234
f 357//357 285//285 163//163
f 188//188 109//109 163//163
f 109//109 324//324 163//163
f 375//375 412//412 506//506
f 285//285 142//142 533//533
f 533//533 163//163 285//285
f 533//533 188//188 163//163
f 210//210 188//188 533//533
f 223//223 532//532 169//169
f 157//157 411//411 280//280
f 437//437 182//182 495//495
f 280//280 437//437 495//495
f 437//437 280//280 411//411
f 472//472 254//254 261//261
f 154//154 293//293 448//448
f 319//319 389//389 355//355
f 355//355 535//535 319//319
f 355//355 375//375 506//506
f 355//355 506//506 535//535
f 497//497 437//437 411//411
f 362//362 357//357 163//163
f 362//362 163//163 324//324
f 200//200 161//161 234//234
f 448//448 293//293 200//200
f 200//200 234//234 448//448
f 200//200 292//292 161//161
f 492//492 9//9 311//311
f 323//323 9//9 492//492
f 451//451 492//492 311//311
f 323//323 492//492 451//451
f 77//77 96//96 81//81
f 77//77 81//81 78//78
f 81//81 96//96 66//66
f 78//78 81//81 66//66
f 476//476 484//484 191//191
f 484//484 476//476 405//405
f 191//191 484//484 455//455
f 484//484 405//405 125//125
f 484//484 125//125 455//455
f 289//289 459//459 445//445
f 289//289 445//445 463//463
f 514//514 459//459 289//289
f 514//514 289//289 463//463
f 390//390 408//408 273//273
f 408//408 16//16 39//39
f 408//408 39//39 273//273
f 129//129 293//293 201//201
f 251//251 292//292 129//129
f 200//200 293//293 129//129
f 292//292 200//200 129//129
f 168//168 235//235 390//390
f 235//235 168//168 416//416
f 379//379 235//235 416//416
f 159//159 235//235 379//379
f 287//287 142//142 285//285
f 287//287 285//285 304//304
f 288//288 142//142 287//287
f 401//401 486//486 327//327
f 340//340 327//327 486//486
f 340//340 486//486 349//349
f 59//59 397//397 90//90
f 322//322 397//397 59//59
f 460//460 91//91 398//398
f 286//286 330//330 393//393
f 353//353 286//286 393//393
f 463//463 436//436 239//239
f 463//463 445//445 436//436
f 162//162 239//239 436//436
f 434//434 445//445 279//279
f 459//459 279//279 445//445
f 65//65 72//72 63//63
f 63//63 72//72 82//82
f 72//72 58//58 80//80
f 72//72 80//80 82//82
f 333//333 421//421 238//238
f 421//421 333//333 399//399
f 515//515 512//512 502//502
f 129//129 201//201 502//502
f 217//217 114//114 467//467
f 515//515 114//114 217//217
f 467//467 114//114 293//293
f 114//114 201//201 293//293
f 502//502 114//114 515//515
f 114//114 502//502 201//201
f 334//334 99//99 513//513
f 100//100 335//335 512//512
f 260//260 28//28 177//177
f 29//29 402//402 178//178
f 178//178 402//402 118//118
f 213//213 403//403 361//361
f 361//361 403//403 460//460
f 213//213 361//361 287//287
f 288//288 287//287 361//361
f 62//62 78//78 67//67
f 62//62 67//67 71//71
f 67//67 79//79 71//71
f 67//67 78//78 82//82
f 67//67 82//82 79//79
f 534//534 281//281 230//230
f 358//358 534//534 230//230
f 128//128 358//358 230//230
f 272//272 231//231 282//282
f 479//479 231//231 272//272
f 413//413 306//306 164//164
f 291//291 182//182 307//307
f 119//119 306//306 413//413
f 307//307 120//120 291//291
f 301//301 176//176 233//233
f 259//259 145//145 499//499
f 471//471 406//406 146//146
f 145//145 259//259 387//387
f 471//471 146//146 302//302
f 302//302 146//146 343//343
f 146//146 406//406 418//418
f 417//417 499//499 145//145
f 244//244 54//54 260//260
f 245//245 118//118 336//336
f 260//260 177//177 244//244
f 118//118 245//245 178//178
f 487//487 295//295 155//155
f 295//295 179//179 155//155
f 213//213 53//53 404//404
f 304//304 404//404 53//53
f 213//213 287//287 53//53
f 304//304 53//53 287//287
f 220//220 203//203 360//360
f 203//203 468//468 17//17
f 203//203 220//220 468//468
f 16//16 408//408 202//202
f 408//408 390//390 202//202
f 390//390 235//235 202//202
f 318//318 524//524 525//525
f 525//525 232//232 175//175
f 524//524 232//232 525//525
f 387//387 266//266 145//145
f 343//343 146//146 267//267
f 336//336 409//409 265//265
f 264//264 344//344 54//54
f 344//344 264//264 367//367
f 54//54 244//244 264//264
f 336//336 265//265 245//245
f 309//309 346//346 148//148
f 309//309 427//427 346//346
f 346//346 427//427 254//254
f 472//472 346//346 254//254
f 198//198 383//383 176//176
f 198//198 291//291 383//383
f 120//120 176//176 383//383
f 120//120 383//383 291//291
f 416//416 54//54 209//209
f 209//209 379//379 416//416
f 363//363 209//209 367//367
f 344//344 209//209 54//54
f 209//209 344//344 367//367
f 341//341 133//133 247//247
f 341//341 159//159 133//133
f 262//262 488//488 487//487
f 489//489 473//473 312//312
f 258//258 294//294 360//360
f 257//257 235//235 159//159
f 360//360 203//203 258//258
f 235//235 257//257 202//202
f 215//215 387//387 236//236
f 55//55 343//343 216//216
f 215//215 236//236 181//181
f 308//308 55//55 216//216
f 266//266 387//387 215//215
f 216//216 343//343 267//267
f 509//509 299//299 338//338
f 485//485 337//337 298//298
f 338//338 409//409 509//509
f 337//337 485//485 367//367
f 409//409 338//338 265//265
f 367//367 264//264 337//337
f 487//487 469//469 295//295
f 295//295 469//469 179//179
f 469//469 487//487 488//488
f 489//489 312//312 470//470
f 181//181 449//449 328//328
f 215//215 181//181 328//328
f 329//329 308//308 216//216
f 76//76 69//69 65//65
f 76//76 60//60 69//69
f 60//60 58//58 69//69
f 65//65 69//69 72//72
f 69//69 58//58 72//72
f 294//294 194//194 157//157
f 157//157 194//194 411//411
f 193//193 247//247 496//496
f 497//497 411//411 194//194
f 247//247 193//193 341//341
f 193//193 159//159 341//341
f 257//257 159//159 193//193
f 194//194 294//294 258//258
f 466//466 184//184 312//312
f 179//179 183//183 226//226
f 340//340 184//184 466//466
f 348//348 226//226 183//183
f 184//184 340//340 349//349
f 470//470 312//312 184//184
f 183//183 179//179 469//469
f 422//422 116//116 49//49
f 423//423 50//50 150//150
f 423//423 150//150 51//51
f 116//116 422//422 297//297
f 422//422 449//449 297//297
f 51//51 332//332 423//423
f 328//328 449//449 422//422
f 296//296 116//116 297//297
f 503//503 116//116 296//296
f 255//255 275//275 431//431
f 255//255 165//165 298//298
f 255//255 431//431 165//165
f 299//299 52//52 256//256
f 276//276 256//256 537//537
f 256//256 52//52 537//537
f 454//454 533//533 142//142
f 210//210 533//533 454//454
f 288//288 454//454 142//142
f 288//288 536//536 454//454
f 464//464 446//446 410//410
f 410//410 446//446 297//297
f 503//503 446//446 141//141
f 464//464 321//321 446//446
f 321//321 226//226 446//446
f 446//446 296//296 297//297
f 446//446 503//503 296//296
f 251//251 129//129 151//151
f 512//512 151//151 502//502
f 502//502 151//151 129//129
f 507//507 247//247 394//394
f 394//394 164//164 507//507
f 437//437 508//508 182//182
f 496//496 247//247 507//507
f 508//508 437//437 497//497
f 182//182 508//508 307//307
f 164//164 306//306 507//507
f 277//277 141//141 369//369
f 369//369 226//226 348//348
f 349//349 486//486 370//370
f 226//226 369//369 446//446
f 141//141 446//446 369//369
f 444//444 278//278 156//156
f 444//444 156//156 401//401
f 486//486 401//401 156//156
f 278//278 370//370 156//156
f 156//156 370//370 486//486
f 477//477 415//415 439//439
f 438//438 405//405 476//476
f 405//405 438//438 224//224
f 415//415 385//385 439//439
f 483//483 249//249 149//149
f 483//483 420//420 249//249
f 483//483 238//238 420//420
f 148//148 346//346 482//482
f 482//482 346//346 472//472
f 246//246 481//481 385//385
f 224//224 438//438 480//480
f 439//439 385//385 481//481
f 186//186 128//128 381//381
f 382//382 479//479 465//465
f 187//187 382//382 465//465
f 382//382 231//231 479//479
f 381//381 128//128 230//230
f 301//301 137//137 392//392
f 137//137 303//303 392//392
f 524//524 162//162 136//136
f 232//232 524//524 136//136
f 301//301 233//233 137//137
f 46//46 34//34 48//48
f 33//33 3//3 34//34
f 46//46 33//33 34//34
f 3//3 42//42 34//34
f 34//34 42//42 48//48
f 132//132 310//310 511//511
f 224//224 131//131 461//461
f 131//131 359//359 461//461
f 246//246 310//310 132//132
f 224//224 480//480 131//131
f 246//246 132//132 481//481
f 240//240 261//261 388//388
f 472//472 261//261 240//240
f 241//241 333//333 238//238
f 483//483 241//241 238//238
f 240//240 482//482 472//472
f 204//204 240//240 388//388
f 241//241 205//205 333//333
f 442//442 359//359 206//206
f 131//131 206//206 359//359
f 207//207 132//132 511//511
f 320//320 505//505 187//187
f 425//425 504//504 263//263
f 425//425 186//186 504//504
f 432//432 505//505 320//320
f 107//107 388//388 368//368
f 368//368 290//290 107//107
f 107//107 204//204 388//388
f 271//271 511//511 380//380
f 207//207 511//511 271//271
f 270//270 442//442 206//206
f 263//263 110//110 223//223
f 111//111 432//432 456//456
f 263//263 504//504 110//110
f 432//432 111//111 505//505
f 459//459 372//372 112//112
f 112//112 372//372 447//447
f 354//354 374//374 113//113
f 351//351 354//354 113//113
f 459//459 112//112 279//279
f 528//528 357//357 253//253
f 195//195 527//527 252//252
f 357//357 362//362 253//253
f 290//290 252//252 107//107
f 362//362 108//108 253//253
f 380//380 188//188 190//190
f 442//442 189//189 412//412
f 190//190 188//188 210//210
f 442//442 270//270 189//189
f 380//380 190//190 271//271
f 532//532 223//223 493//493
f 110//110 493//493 223//223
f 456//456 494//494 111//111
f 371//371 290//290 169//169
f 169//169 532//532 371//371
f 532//532 526//526 371//371
f 371//371 195//195 252//252
f 252//252 290//290 371//371
f 133//133 350//350 247//247
f 350//350 133//133 414//414
f 431//431 350//350 414//414
f 350//350 394//394 247//247
f 350//350 431//431 394//394
f 356//356 430//430 166//166
f 166//166 430//430 153//153
f 447//447 356//356 166//166
f 351//351 167//167 234//234
f 154//154 448//448 167//167
f 234//234 167//167 448//448
f 447//447 166//166 112//112
f 351//351 113//113 167//167
f 531//531 456//456 161//161
f 531//531 292//292 251//251
f 531//531 161//161 292//292
f 456//456 531//531 494//494
f 532//532 493//493 530//530
f 506//506 522//522 535//535
f 522//522 506//506 412//412
f 454//454 536//536 523//523
f 454//454 523//523 210//210
f 522//522 412//412 189//189
f 190//190 210//210 523//523
f 516//516 304//304 285//285
f 528//528 516//516 285//285
f 196//196 517//517 529//529
f 518//518 195//195 160//160
f 227//227 520//520 395//395
f 453//453 520//520 227//227
f 360//360 227//227 395//395
f 360//360 453//453 227//227
f 500//500 404//404 304//304
f 500//500 219//219 404//404
f 317//317 218//218 501//501
f 317//317 501//501 160//160
f 304//304 516//516 500//500
f 160//160 501//501 518//518
f 353//353 317//317 373//373
f 317//317 160//160 373//373
f 373//373 286//286 353//353
f 160//160 195//195 384//384
f 526//526 185//185 384//384
f 185//185 286//286 384//384
f 384//384 195//195 371//371
f 526//526 384//384 371//371
f 160//160 384//384 373//373
f 286//286 373//373 384//384
f 319//319 428//428 322//322
f 319//319 535//535 428//428
f 288//288 429//429 536//536
f 322//322 428//428 397//397
f 460//460 398//398 429//429
f 361//361 460//460 429//429
f 288//288 361//361 429//429
f 526//526 532//532 400//400
f 400//400 532//532 530//530
f 173//173 239//239 424//424
f 424//424 239//239 152//152
f 424//424 152//152 524//524
f 173//173 424//424 135//135
f 424//424 524//524 135//135
f 138//138 199//199 315//315
f 315//315 199//199 391//391
f 138//138 315//315 121//121
f 315//315 391//391 121//121
f 313//313 445//445 434//434
f 435//435 303//303 314//314
f 313//313 436//436 445//445
f 313//313 162//162 436//436
f 314//314 303//303 137//137
f 136//136 162//162 313//313
f 171//171 374//374 435//435
f 434//434 279//279 170//170
f 113//113 374//374 171//171
f 170//170 279//279 112//112
f 332//332 308//308 225//225
f 225//225 308//308 329//329
f 332//332 225//225 423//423
f 423//423 225//225 329//329
f 13//13 283//283 115//115
f 323//323 284//284 14//14
f 284//284 323//323 451//451
f 115//115 283//283 262//262
f 144//144 451//451 473//473
f 143//143 488//488 262//262
f 489//489 144//144 473//473
f 284//284 451//451 144//144
f 143//143 262//262 283//283
f 330//330 366//366 250//250
f 185//185 526//526 366//366
f 330//330 286//286 366//366
f 286//286 185//185 366//366
f 250//250 366//366 530//530
f 366//366 526//526 400//400
f 366//366 400//400 530//530
f 175//175 413//413 212//212
f 212//212 413//413 342//342
f 342//342 318//318 212//212
f 175//175 212//212 525//525
f 318//318 525//525 212//212
f 513//513 393//393 377//377
f 330//330 377//377 393//393
f 377//377 330//330 250//250
f 377//377 334//334 513//513
f 335//335 378//378 512//512
f 512//512 378//378 151//151
f 251//251 151//151 378//378
f 134//134 169//169 345//345
f 134//134 345//345 261//261
f 345//345 169//169 368//368
f 345//345 368//368 261//261
f 71//71 68//68 89//89
f 71//71 79//79 68//68
f 68//68 86//86 89//89
f 79//79 86//86 68//68
f 399//399 228//228 324//324
f 324//324 228//228 362//362
f 399//399 333//333 228//228
f 333//333 205//205 228//228
f 228//228 108//108 362//362
f 228//228 205//205 108//108
f 117//117 303//303 374//374
f 326//326 303//303 117//117
f 326//326 117//117 498//498
f 354//354 117//117 374//374
f 354//354 498//498 117//117
f 133//133 379//379 376//376
f 133//133 376//376 363//363
f 376//376 379//379 209//209
f 363//363 376//376 209//209
f 47//47 22//22 42//42
f 42//42 4//4 47//47
f 47//47 24//24 22//22
f 4//4 24//24 47//47
f 356//356 521//521 430//430
f 430//430 521//521 199//199
f 199//199 521//521 389//389
f 356//356 375//375 521//521
f 521//521 355//355 389//389
f 355//355 521//521 375//375